<mxfile host="app.diagrams.net" modified="2021-09-19T20:36:17.233Z" agent="5.0 (Macintosh; Intel Mac OS X 10_14_6) AppleWebKit/537.36 (KHTML, like Gecko) Chrome/92.0.4515.159 Safari/537.36" etag="lf1oeWZHeGAzNHarlajp" version="15.2.9" type="github">
  <diagram id="BRhAdPvHRd9ItZ6dfvDL" name="Page-1">
    <mxGraphModel dx="946" dy="614" grid="1" gridSize="10" guides="1" tooltips="1" connect="1" arrows="1" fold="1" page="1" pageScale="1" pageWidth="827" pageHeight="1169" math="0" shadow="0">
      <root>
        <mxCell id="0" />
        <mxCell id="1" parent="0" />
        <mxCell id="YRAfNzL8KzJ0ZZLEqC8v-1" value="&lt;b&gt;&lt;font style=&quot;font-size: 17px&quot;&gt;Client&lt;br&gt;&lt;/font&gt;&lt;/b&gt;" style="ellipse;whiteSpace=wrap;html=1;" vertex="1" parent="1">
          <mxGeometry x="40" y="120" width="160" height="140" as="geometry" />
        </mxCell>
        <mxCell id="YRAfNzL8KzJ0ZZLEqC8v-2" value="&lt;b style=&quot;font-size: 13px&quot;&gt;&lt;font style=&quot;font-size: 13px&quot;&gt;Server&lt;br&gt;(Express)&lt;br&gt;&lt;/font&gt;&lt;/b&gt;" style="ellipse;whiteSpace=wrap;html=1;" vertex="1" parent="1">
          <mxGeometry x="550" y="120" width="170" height="140" as="geometry" />
        </mxCell>
        <mxCell id="YRAfNzL8KzJ0ZZLEqC8v-4" value="MongoDB" style="shape=datastore;whiteSpace=wrap;html=1;" vertex="1" parent="1">
          <mxGeometry x="720" y="100" width="60" height="60" as="geometry" />
        </mxCell>
        <mxCell id="YRAfNzL8KzJ0ZZLEqC8v-6" value="send user credentials" style="html=1;shadow=0;dashed=0;align=center;verticalAlign=middle;shape=mxgraph.arrows2.arrow;dy=0.6;dx=40;notch=0;" vertex="1" parent="1">
          <mxGeometry x="240" y="180" width="290" height="50" as="geometry" />
        </mxCell>
        <mxCell id="YRAfNzL8KzJ0ZZLEqC8v-9" value="checks if credentials are valid, if not inform user , if yes , generate jwt&amp;nbsp;" style="rounded=1;whiteSpace=wrap;html=1;absoluteArcSize=1;arcSize=14;strokeWidth=2;" vertex="1" parent="1">
          <mxGeometry x="585" y="270" width="100" height="100" as="geometry" />
        </mxCell>
        <mxCell id="YRAfNzL8KzJ0ZZLEqC8v-10" value="send identifying token&amp;nbsp;" style="html=1;shadow=0;dashed=0;align=center;verticalAlign=middle;shape=mxgraph.arrows2.arrow;dy=0.6;dx=40;flipH=1;notch=0;" vertex="1" parent="1">
          <mxGeometry x="240" y="285" width="280" height="45" as="geometry" />
        </mxCell>
        <mxCell id="YRAfNzL8KzJ0ZZLEqC8v-11" value="store jwt, use it whenever requesting protected resources" style="rounded=1;whiteSpace=wrap;html=1;absoluteArcSize=1;arcSize=14;strokeWidth=2;" vertex="1" parent="1">
          <mxGeometry x="70" y="270" width="90" height="190" as="geometry" />
        </mxCell>
        <mxCell id="YRAfNzL8KzJ0ZZLEqC8v-12" value="request protected resource {jwt}" style="html=1;shadow=0;dashed=0;align=center;verticalAlign=middle;shape=mxgraph.arrows2.arrow;dy=0.6;dx=40;notch=0;" vertex="1" parent="1">
          <mxGeometry x="240" y="390" width="280" height="50" as="geometry" />
        </mxCell>
        <mxCell id="YRAfNzL8KzJ0ZZLEqC8v-13" value="check if jwt is valid, if not inform user and block resource if yes grant access" style="rounded=1;whiteSpace=wrap;html=1;absoluteArcSize=1;arcSize=14;strokeWidth=2;" vertex="1" parent="1">
          <mxGeometry x="585" y="400" width="100" height="100" as="geometry" />
        </mxCell>
        <mxCell id="YRAfNzL8KzJ0ZZLEqC8v-17" value="identifying jwt matches send protected ressource" style="rounded=1;whiteSpace=wrap;html=1;absoluteArcSize=1;arcSize=14;strokeWidth=2;" vertex="1" parent="1">
          <mxGeometry x="585" y="520" width="100" height="100" as="geometry" />
        </mxCell>
        <mxCell id="YRAfNzL8KzJ0ZZLEqC8v-18" value="receive protected ressource" style="rounded=1;whiteSpace=wrap;html=1;absoluteArcSize=1;arcSize=14;strokeWidth=2;" vertex="1" parent="1">
          <mxGeometry x="70" y="500" width="100" height="100" as="geometry" />
        </mxCell>
        <mxCell id="YRAfNzL8KzJ0ZZLEqC8v-19" value="send protected ressource" style="html=1;shadow=0;dashed=0;align=center;verticalAlign=middle;shape=mxgraph.arrows2.arrow;dy=0.6;dx=40;flipH=1;notch=0;" vertex="1" parent="1">
          <mxGeometry x="240" y="515" width="280" height="55" as="geometry" />
        </mxCell>
      </root>
    </mxGraphModel>
  </diagram>
</mxfile>
